<svg viewBox="0 0 51 50" fill="none" xmlns="http://www.w3.org/2000/svg">
<path d="M38.8524 46.5958L23.5136 50L20.8823 42.8009L24.1294 42.1312V21.0372L24.9692 20.814C23.0657 19.363 20.7154 18.3026 18.364 17.5213L20.0436 15.6239L13.3254 15.5123L13.2694 19.4188H21.6661L21.5541 29.4072L21.0503 38.4469C20.8263 42.186 20.0985 46.4831 16.4035 48.4922C15.0599 49.2177 13.6043 49.4967 12.0927 49.6641C11.2529 47.0422 10.0213 44.6425 9.01354 43.1357C7.94983 45.4238 6.83013 47.6003 5.37453 49.7199C3.52704 47.3213 1.62356 44.9205 0 43.4706C4.42279 36.4947 6.1013 30.914 6.26925 21.5953L6.38122 15.4565H0.617905V8.31318H8.79064C8.23079 6.24832 7.33503 4.35088 6.15936 2.23125L12.7656 0C13.9972 2.17647 15.0609 4.7994 16.0686 7.31072C15.0609 7.58976 14.0532 7.86879 13.1015 8.20363L21.6101 8.31525V13.6169C24.3533 9.65462 26.6487 4.96683 27.9924 0.112648C30.3427 0.838139 32.807 1.50782 35.2133 2.28912C34.7655 4.07495 34.2056 5.47012 33.6458 7.08853L50.1602 7.14433V14.4551L43.2181 14.3992C44.7857 15.7944 46.5212 17.078 48.2557 18.3615C45.3455 20.2032 42.2664 21.7658 39.1872 23.2168C39.4112 24.7794 39.7471 26.3978 40.3069 27.7929C41.9305 26.2861 43.4981 24.7235 44.7297 22.9377L50.4402 27.2907C48.0328 29.9694 45.7374 31.9227 43.1621 33.8759C45.0096 36.9453 48.0328 39.624 51 41.5204C49.0405 43.7527 47.5849 46.2082 46.1853 48.5521C43.0512 46.6547 40.6998 44.1434 38.9643 41.4088L38.8524 46.5978V46.5958ZM13.0455 26.6737C12.4856 31.5847 11.4219 37.4434 9.57442 42.0754C10.5262 42.0196 11.5339 42.0196 12.4296 41.7964C13.1574 41.5731 13.6613 40.9035 13.9412 40.2338C14.5571 35.9935 14.837 31.1941 14.893 26.6737H13.0455ZM30.0638 14.453C28.8321 16.5737 27.4885 18.5827 25.866 20.3685C30.9036 19.0292 35.9422 17.1875 40.421 14.5646L30.0638 14.453ZM31.5194 40.8487C33.5908 40.458 35.4373 40.179 37.7327 39.6767C35.4373 35.3238 33.8148 30.8034 33.087 25.8366C32.5271 26.004 32.0233 26.2272 31.5194 26.4505V40.8476V40.8487Z" fill="#F20C25"/>
</svg>
